<svg width="193" height="21" viewBox="0 0 193 21" fill="none" xmlns="http://www.w3.org/2000/svg">
<path fill-rule="evenodd" clip-rule="evenodd" d="M60.4511 20.5546C57.0547 20.5546 54.2847 17.7846 54.2847 14.3882C54.2847 10.9917 57.0449 8.23147 60.4511 8.23147H70.3665V11.0211H60.4511C58.5914 11.0211 57.0841 12.5284 57.0841 14.3882C57.0841 16.2479 58.5914 17.7553 60.4511 17.7553H70.3665V20.5449H60.4511V20.5546Z" fill="#26A7DF"/>
<path fill-rule="evenodd" clip-rule="evenodd" d="M73.1167 20.5544V13.0176H87.6911V15.7583H75.8769V17.7942H87.6911V20.5446H73.1167V20.5544ZM73.1167 10.9915V8.24103H87.6911V10.9915H73.1167Z" fill="#26A7DF"/>
<path fill-rule="evenodd" clip-rule="evenodd" d="M19.5371 20.5055V13.0372L19.9678 13.0177H31.1262C31.6645 13.0177 32.1148 12.5674 32.1148 12.0291C32.1148 11.4907 31.6645 11.0405 31.1262 11.0405H19.5371V8.2998H31.1262C33.1817 8.2998 34.8554 9.97356 34.8554 12.0291C34.8554 14.0845 33.1817 15.7583 31.1262 15.7583H22.2778V20.5055H19.5469H19.5371Z" fill="#26A7DF"/>
<path fill-rule="evenodd" clip-rule="evenodd" d="M49.9872 20.5644L43.3118 11.7258L36.6461 20.5644H32.9854L42.2742 8.23147H44.3591L53.648 20.5644H49.9872Z" fill="#EA1F27"/>
<path d="M3.7684 20.5542C1.7227 20.5542 0.0489387 18.9 0.00978642 16.8641H2.82875C2.84833 17.1088 2.92663 17.3241 3.06367 17.4807C3.23006 17.6667 3.46497 17.7646 3.7684 17.7646H12.9985C13.7033 17.7646 13.9578 17.236 13.9578 16.776C13.9578 16.3159 13.7033 15.7874 12.9985 15.7874H3.77819C2.80918 15.7874 1.84016 15.3861 1.12563 14.6813C0.401312 13.957 0 12.9978 0 11.9994C0 9.91453 1.69334 8.22119 3.77819 8.22119H13.0083C15.054 8.22119 16.7278 9.87537 16.7767 11.9211H13.9578C13.9382 11.6764 13.8599 11.461 13.7229 11.3044C13.5565 11.1185 13.3118 11.0206 13.0181 11.0206H3.78798C3.08324 11.0206 2.82875 11.5491 2.82875 12.0092C2.82875 12.4692 3.08324 12.9978 3.78798 12.9978H13.0083C13.9774 12.9978 14.9464 13.3991 15.6609 14.094C16.3852 14.8281 16.7963 15.7776 16.7963 16.776C16.7963 18.8608 15.0932 20.5542 13.0181 20.5542H3.78798H3.7684Z" fill="#26A7DF"/>
<path d="M47.3349 1.6544H32.457V1.99699H47.3349V1.6544Z" fill="#26A7DF"/>
<path d="M154.465 1.6544H139.587V1.99699H154.465V1.6544Z" fill="#26A7DF"/>
<path fill-rule="evenodd" clip-rule="evenodd" d="M80.4969 4.11099C79.3615 4.11099 78.4414 3.19091 78.4414 2.05549C78.4414 0.920077 79.3615 0 80.4969 0H82.6111C83.7465 0 84.6666 0.920077 84.6666 2.05549C84.6666 3.19091 83.7465 4.11099 82.6111 4.11099H80.4969ZM80.4969 0.988593C79.9096 0.988593 79.43 1.46821 79.43 2.05549C79.43 2.64278 79.9096 3.12239 80.4969 3.12239H82.6111C83.1984 3.12239 83.678 2.64278 83.678 2.05549C83.678 1.46821 83.1984 0.988593 82.6111 0.988593H80.4969Z" fill="#26A7DF"/>
<path fill-rule="evenodd" clip-rule="evenodd" d="M58.6592 4.11099L55.3606 1.38012V4.11099H54.3818V0H55.2236L55.2921 0.0489396L58.5516 2.73087V0H59.5304V4.11099H58.6592Z" fill="#26A7DF"/>
<path fill-rule="evenodd" clip-rule="evenodd" d="M105.72 4.11099L102.617 0H103.909L106.082 2.87769L108.255 0H109.547L106.445 4.11099H105.72Z" fill="#26A7DF"/>
<path fill-rule="evenodd" clip-rule="evenodd" d="M131.248 4.11099L129.075 1.23329L126.912 4.11099H125.61L128.723 0H129.437L132.54 4.11099H131.248Z" fill="#26A7DF"/>
<path fill-rule="evenodd" clip-rule="evenodd" d="M119.277 20.5546C115.881 20.5546 113.111 17.7944 113.111 14.3882C113.111 10.9819 115.871 8.23147 119.277 8.23147H123.985C127.382 8.23147 130.152 10.9917 130.152 14.3882C130.152 17.7846 127.382 20.5546 123.985 20.5546H119.277ZM119.277 10.238C116.987 10.238 115.117 12.0978 115.117 14.3882C115.117 16.6786 116.977 18.5481 119.277 18.5481H123.985C126.276 18.5481 128.145 16.6786 128.145 14.3882C128.145 12.0978 126.286 10.238 123.985 10.238H119.277Z" fill="#26A7DF"/>
<path fill-rule="evenodd" clip-rule="evenodd" d="M168.051 20.5644L160.583 10.6589L153.115 20.5644H150.413L159.702 8.23147H161.454L170.743 20.5644H168.051Z" fill="#26A7DF"/>
<path d="M96.7748 20.5546C95.0227 20.5546 93.5447 19.2626 93.2609 17.5693H95.3457C95.4142 17.7552 95.5121 17.9314 95.6393 18.0684C95.9134 18.3817 96.3147 18.5481 96.7846 18.5481H106.778C107.845 18.5481 108.325 17.7259 108.325 16.9722C108.325 16.2185 107.845 15.3963 106.778 15.3963H96.7943C95.8743 15.3963 94.964 15.0146 94.2788 14.349C93.5936 13.6638 93.2119 12.7535 93.2119 11.8139C93.2119 9.83669 94.8172 8.23145 96.7943 8.23145H106.788C108.54 8.23145 110.018 9.53326 110.312 11.2168H108.227C108.158 11.0308 108.07 10.8644 107.943 10.7176C107.659 10.4044 107.258 10.238 106.798 10.238H96.8041C95.7372 10.238 95.2576 11.0504 95.2576 11.8139C95.2576 12.5773 95.7372 13.3898 96.8041 13.3898H106.788C107.708 13.3898 108.618 13.7715 109.303 14.4371C109.989 15.132 110.38 16.0325 110.38 16.9722C110.38 18.9494 108.775 20.5546 106.798 20.5546H96.8041H96.7748Z" fill="#26A7DF"/>
<path d="M132.902 20.5546V8.23147H134.87V18.597H147.663V20.5546H132.902Z" fill="#26A7DF"/>
<path fill-rule="evenodd" clip-rule="evenodd" d="M173.503 20.4962V13.4096H183.398C184.26 13.4096 184.984 12.6853 184.984 11.8338C184.984 10.9822 184.26 10.2579 183.398 10.2579H173.503V8.31006H183.398C185.346 8.31006 186.922 9.89572 186.922 11.8338C186.922 13.7718 185.336 15.3575 183.398 15.3575H175.441V20.4962H173.503Z" fill="#26A7DF"/>
<path fill-rule="evenodd" clip-rule="evenodd" d="M184.368 20.4966L179.719 14.751H181.95L186.59 20.4966H184.368Z" fill="#26A7DF"/>
<path d="M189.399 8.591H188.782V8.29736H190.368V8.591H189.751V10.1669H189.409V8.591H189.399Z" fill="#26A7DF"/>
<path d="M192.433 9.89335V8.66005L191.816 9.6878H191.66L191.043 8.67963V9.90314H190.71V8.03362H190.994L191.738 9.26691L192.462 8.03362H192.746V9.90314H192.423L192.433 9.89335Z" fill="#26A7DF"/>
</svg>
