<svg width="193" height="21" viewBox="0 0 193 21" fill="none" xmlns="http://www.w3.org/2000/svg">
<path fill-rule="evenodd" clip-rule="evenodd" d="M60.4511 20.5546C57.0547 20.5546 54.2847 17.7846 54.2847 14.3881C54.2847 10.9917 57.0449 8.23145 60.4511 8.23145H70.3665V11.021H60.4511C58.5914 11.021 57.0841 12.5284 57.0841 14.3881C57.0841 16.2479 58.5914 17.7552 60.4511 17.7552H70.3665V20.5448H60.4511V20.5546Z" fill="#26A7DF"/>
<path fill-rule="evenodd" clip-rule="evenodd" d="M73.1167 20.5546V13.0178H87.6911V15.7584H75.8769V17.7944H87.6911V20.5448H73.1167V20.5546ZM73.1167 10.9917V8.24121H87.6911V10.9917H73.1167Z" fill="#26A7DF"/>
<path fill-rule="evenodd" clip-rule="evenodd" d="M19.5371 20.5055V13.0372L19.9678 13.0177H31.1262C31.6645 13.0177 32.1148 12.5674 32.1148 12.0291C32.1148 11.4907 31.6645 11.0405 31.1262 11.0405H19.5371V8.2998H31.1262C33.1817 8.2998 34.8554 9.97356 34.8554 12.0291C34.8554 14.0845 33.1817 15.7583 31.1262 15.7583H22.2778V20.5055H19.5469H19.5371Z" fill="#26A7DF"/>
<path fill-rule="evenodd" clip-rule="evenodd" d="M49.9872 20.5644L43.3118 11.7258L36.6461 20.5644H32.9854L42.2742 8.23145H44.3591L53.648 20.5644H49.9872Z" fill="#EA1F27"/>
<path d="M3.7684 20.5542C1.7227 20.5542 0.0489387 18.9 0.00978642 16.8641H2.82875C2.84833 17.1088 2.92663 17.3241 3.06367 17.4807C3.23006 17.6667 3.46497 17.7646 3.7684 17.7646H12.9985C13.7033 17.7646 13.9578 17.236 13.9578 16.776C13.9578 16.3159 13.7033 15.7874 12.9985 15.7874H3.77819C2.80918 15.7874 1.84016 15.3861 1.12563 14.6813C0.401312 13.957 0 12.9978 0 11.9994C0 9.91453 1.69334 8.22119 3.77819 8.22119H13.0083C15.054 8.22119 16.7278 9.87537 16.7767 11.9211H13.9578C13.9382 11.6764 13.8599 11.461 13.7229 11.3044C13.5565 11.1185 13.3118 11.0206 13.0181 11.0206H3.78798C3.08324 11.0206 2.82875 11.5491 2.82875 12.0092C2.82875 12.4692 3.08324 12.9978 3.78798 12.9978H13.0083C13.9774 12.9978 14.9464 13.3991 15.6609 14.094C16.3852 14.8281 16.7963 15.7776 16.7963 16.776C16.7963 18.8608 15.0932 20.5542 13.0181 20.5542H3.78798H3.7684Z" fill="#26A7DF"/>
<path d="M47.3349 1.6543H32.457V1.99688H47.3349V1.6543Z" fill="#26A7DF"/>
<path d="M154.465 1.6543H139.587V1.99688H154.465V1.6543Z" fill="#26A7DF"/>
<path fill-rule="evenodd" clip-rule="evenodd" d="M80.4974 4.11099C79.362 4.11099 78.4419 3.19091 78.4419 2.05549C78.4419 0.920077 79.362 0 80.4974 0H82.6116C83.747 0 84.6671 0.920077 84.6671 2.05549C84.6671 3.19091 83.747 4.11099 82.6116 4.11099H80.4974ZM80.4974 0.988593C79.9101 0.988593 79.4305 1.46821 79.4305 2.05549C79.4305 2.64278 79.9101 3.12239 80.4974 3.12239H82.6116C83.1989 3.12239 83.6785 2.64278 83.6785 2.05549C83.6785 1.46821 83.1989 0.988593 82.6116 0.988593H80.4974Z" fill="#26A7DF"/>
<path fill-rule="evenodd" clip-rule="evenodd" d="M58.6597 4.11099L55.3611 1.38012V4.11099H54.3823V0H55.2241L55.2926 0.0489396L58.552 2.73087V0H59.5308V4.11099H58.6597Z" fill="#26A7DF"/>
<path fill-rule="evenodd" clip-rule="evenodd" d="M105.72 4.11099L102.617 0H103.909L106.082 2.87769L108.255 0H109.547L106.444 4.11099H105.72Z" fill="#26A7DF"/>
<path fill-rule="evenodd" clip-rule="evenodd" d="M131.248 4.11099L129.075 1.23329L126.912 4.11099H125.61L128.722 0H129.437L132.54 4.11099H131.248Z" fill="#26A7DF"/>
<path fill-rule="evenodd" clip-rule="evenodd" d="M119.277 20.5546C115.88 20.5546 113.11 17.7944 113.11 14.3881C113.11 10.9819 115.871 8.23145 119.277 8.23145H123.985C127.381 8.23145 130.151 10.9917 130.151 14.3881C130.151 17.7846 127.381 20.5546 123.985 20.5546H119.277ZM119.277 10.238C116.986 10.238 115.117 12.0977 115.117 14.3881C115.117 16.6785 116.977 18.5481 119.277 18.5481H123.985C126.275 18.5481 128.145 16.6785 128.145 14.3881C128.145 12.0977 126.285 10.238 123.985 10.238H119.277Z" fill="#26A7DF"/>
<path fill-rule="evenodd" clip-rule="evenodd" d="M168.051 20.5644L160.582 10.6589L153.114 20.5644H150.413L159.701 8.23145H161.454L170.742 20.5644H168.051Z" fill="#26A7DF"/>
<path d="M96.7743 20.5546C95.0222 20.5546 93.5442 19.2626 93.2604 17.5693H95.3452C95.4137 17.7552 95.5116 17.9314 95.6389 18.0684C95.9129 18.3817 96.3142 18.5481 96.7841 18.5481H106.778C107.845 18.5481 108.324 17.7259 108.324 16.9722C108.324 16.2185 107.845 15.3963 106.778 15.3963H96.7939C95.8738 15.3963 94.9635 15.0146 94.2783 14.349C93.5932 13.6638 93.2114 12.7535 93.2114 11.8139C93.2114 9.83669 94.8167 8.23145 96.7939 8.23145H106.787C108.54 8.23145 110.018 9.53326 110.311 11.2168H108.226C108.158 11.0308 108.07 10.8644 107.942 10.7176C107.659 10.4044 107.257 10.238 106.797 10.238H96.8036C95.7367 10.238 95.2571 11.0504 95.2571 11.8139C95.2571 12.5773 95.7367 13.3898 96.8036 13.3898H106.787C107.708 13.3898 108.618 13.7715 109.303 14.4371C109.988 15.132 110.38 16.0325 110.38 16.9722C110.38 18.9494 108.774 20.5546 106.797 20.5546H96.8036H96.7743Z" fill="#26A7DF"/>
<path d="M132.902 20.5546V8.23145H134.869V18.597H147.662V20.5546H132.902Z" fill="#26A7DF"/>
<path fill-rule="evenodd" clip-rule="evenodd" d="M173.502 20.4962V13.4096H183.398C184.26 13.4096 184.984 12.6853 184.984 11.8338C184.984 10.9822 184.26 10.2579 183.398 10.2579H173.502V8.31006H183.398C185.346 8.31006 186.922 9.89572 186.922 11.8338C186.922 13.7718 185.336 15.3575 183.398 15.3575H175.44V20.4962H173.502Z" fill="#26A7DF"/>
<path fill-rule="evenodd" clip-rule="evenodd" d="M184.368 20.4966L179.718 14.751H181.95L186.589 20.4966H184.368Z" fill="#26A7DF"/>
<path d="M189.399 8.591H188.783V8.29736H190.368V8.591H189.752V10.1669H189.409V8.591H189.399Z" fill="#26A7DF"/>
<path d="M192.433 9.89342V8.66013L191.816 9.68787H191.66L191.043 8.6797V9.90321H190.71V8.03369H190.994L191.738 9.26699L192.463 8.03369H192.746V9.90321H192.423L192.433 9.89342Z" fill="#26A7DF"/>
</svg>
