<svg width="22" height="22" viewBox="0 0 22 22" fill="none" xmlns="http://www.w3.org/2000/svg">
<g clip-path="url(#clip0_1_175)">
<path d="M12.3479 2.15422C12.2118 1.91712 12.0155 1.72013 11.7789 1.58315C11.5423 1.44616 11.2738 1.37402 11.0004 1.37402C10.727 1.37402 10.4584 1.44616 10.2219 1.58315C9.98526 1.72013 9.789 1.91712 9.65289 2.15422L0.224512 18.1963C-0.403863 19.2661 0.349637 20.626 1.57201 20.626H20.4274C21.6498 20.626 22.4046 19.2647 21.7749 18.1963L12.3479 2.15422ZM10.9976 6.87597C11.7333 6.87597 12.3094 7.51122 12.2351 8.2441L11.7539 13.0662C11.7377 13.2557 11.651 13.4321 11.511 13.5607C11.371 13.6893 11.1878 13.7607 10.9976 13.7607C10.8075 13.7607 10.6243 13.6893 10.4843 13.5607C10.3442 13.4321 10.2576 13.2557 10.2414 13.0662L9.76014 8.2441C9.74286 8.07117 9.76199 7.89654 9.8163 7.73145C9.87061 7.56636 9.9589 7.41449 10.0755 7.2856C10.1921 7.15671 10.3344 7.05367 10.4932 6.98312C10.652 6.91257 10.8238 6.87607 10.9976 6.87597ZM11.0004 15.126C11.3651 15.126 11.7148 15.2708 11.9727 15.5287C12.2305 15.7866 12.3754 16.1363 12.3754 16.501C12.3754 16.8656 12.2305 17.2154 11.9727 17.4732C11.7148 17.7311 11.3651 17.876 11.0004 17.876C10.6357 17.876 10.286 17.7311 10.0281 17.4732C9.77025 17.2154 9.62539 16.8656 9.62539 16.501C9.62539 16.1363 9.77025 15.7866 10.0281 15.5287C10.286 15.2708 10.6357 15.126 11.0004 15.126Z" fill="#FFAD06"/>
</g>
<defs>
<clipPath id="clip0_1_175">
<rect width="22" height="22" fill="white"/>
</clipPath>
</defs>
</svg>
