<svg width="24" height="24" viewBox="0 0 24 24" fill="none" xmlns="http://www.w3.org/2000/svg">
<g clip-path="url(#clip0_1_64)">
<path d="M21.9001 18.7533L21.6734 18.5533C21.0306 17.9802 20.4677 17.3232 20.0001 16.6C19.4891 15.6019 19.1831 14.5116 19.1001 13.3933V10.1C19.1045 8.34374 18.4675 6.64632 17.3086 5.32665C16.1498 4.00698 14.5489 3.15591 12.8068 2.93333V2.07333C12.8068 1.83729 12.713 1.61092 12.5461 1.44401C12.3792 1.2771 12.1528 1.18333 11.9168 1.18333C11.6807 1.18333 11.4544 1.2771 11.2875 1.44401C11.1205 1.61092 11.0268 1.83729 11.0268 2.07333V2.94667C9.30029 3.18529 7.71876 4.0415 6.57513 5.35674C5.4315 6.67197 4.80327 8.3571 4.80678 10.1V13.3933C4.72382 14.5116 4.4178 15.6019 3.90678 16.6C3.44737 17.3216 2.89358 17.9785 2.26011 18.5533L2.03345 18.7533V20.6333H21.9001V18.7533Z" fill="white"/>
<path d="M10.2134 21.3333C10.2718 21.7559 10.4812 22.1431 10.8029 22.4233C11.1246 22.7035 11.5368 22.8579 11.9634 22.8579C12.39 22.8579 12.8022 22.7035 13.1239 22.4233C13.4455 22.1431 13.6549 21.7559 13.7134 21.3333H10.2134Z" fill="white"/>
</g>
<defs>
<clipPath id="clip0_1_64">
<rect width="24" height="24" fill="white"/>
</clipPath>
</defs>
</svg>
