<svg width="50" height="50" viewBox="0 0 50 50" fill="none" xmlns="http://www.w3.org/2000/svg">
<path d="M24.9792 4.16666C13.4792 4.16666 4.16675 13.5 4.16675 25C4.16675 36.5 13.4792 45.8333 24.9792 45.8333C36.5001 45.8333 45.8334 36.5 45.8334 25C45.8334 13.5 36.5001 4.16666 24.9792 4.16666ZM31.7084 36.2292L25.0001 32.1875L18.2917 36.2292C18.1162 36.3356 17.9133 36.3881 17.7081 36.38C17.503 36.372 17.3048 36.3037 17.1382 36.1837C16.9716 36.0638 16.844 35.8975 16.7713 35.7055C16.6985 35.5135 16.6839 35.3044 16.7292 35.1042L18.5001 27.4792L12.6042 22.375C12.4511 22.2386 12.3412 22.0604 12.288 21.8623C12.2348 21.6642 12.2406 21.4549 12.3048 21.2601C12.369 21.0653 12.4887 20.8935 12.6493 20.7659C12.8098 20.6382 13.0042 20.5603 13.2084 20.5417L21.0001 19.875L24.0417 12.6875C24.3959 11.8333 25.6042 11.8333 25.9584 12.6875L29.0001 19.8542L36.7918 20.5208C36.9968 20.5384 37.1921 20.6164 37.3529 20.7449C37.5137 20.8734 37.6328 21.0467 37.6952 21.2428C37.7576 21.439 37.7605 21.6492 37.7035 21.847C37.6466 22.0448 37.5323 22.2213 37.3751 22.3542L31.4792 27.4583L33.2501 35.1042C33.4584 36 32.5001 36.7083 31.7084 36.2292Z" fill="#26A7DF"/>
</svg>
