<svg width="30" height="30" viewBox="0 0 30 30" fill="none" xmlns="http://www.w3.org/2000/svg">
<g clip-path="url(#clip0_1_209)">
<path fill-rule="evenodd" clip-rule="evenodd" d="M1.75758 7.23682C2.24791 7.0344 2.79954 7.30182 3.14685 7.70296C3.39645 7.99158 3.70653 8.22174 4.05508 8.37709C4.46945 8.56232 4.92496 8.63636 5.37668 8.59189C5.8284 8.54743 6.26072 8.38601 6.63103 8.12355C7.00133 7.86108 7.29682 7.50664 7.48835 7.09517C7.67989 6.68371 7.76085 6.22943 7.72327 5.77713C7.68241 5.26828 7.86257 4.71115 8.32689 4.49387L9.08839 4.13544C9.51654 3.95726 9.99764 3.95479 10.4276 4.12857C10.8576 4.30234 11.2018 4.63838 11.3859 5.064L12.283 7.14025L12.1864 7.35011L12.1845 7.35382L6.25971 21.0352L5.61708 22.4967L0.126865 9.79407C-0.0381972 9.38267 -0.0423297 8.92422 0.115289 8.50991C0.272908 8.0956 0.580727 7.7558 0.977513 7.5581L1.75758 7.23682ZM22.7861 10.9585C23.1297 10.5536 23.6831 10.2881 24.1735 10.4886L24.9963 10.8285C25.4038 11.0307 25.72 11.3792 25.8818 11.8044C26.0436 12.2295 26.0391 12.7 25.8692 13.122L19.0491 28.9075C18.8609 29.3446 18.5079 29.6899 18.0665 29.8683C17.6252 30.0467 17.1314 30.0438 16.6922 29.8602L8.44948 26.3484C8.01239 26.1605 7.66702 25.8079 7.4883 25.3671C7.30957 24.9262 7.31192 24.4327 7.49482 23.9936L8.38818 21.9637L14.3186 8.27124C14.5064 7.8342 14.8591 7.48886 15.3 7.31016C15.7409 7.13145 16.2345 7.1338 16.6736 7.31668L17.4797 7.69367C17.944 7.91096 18.1242 8.46809 18.0778 8.9788C18.0435 9.36648 18.0936 9.757 18.2247 10.1235C18.3559 10.4899 18.5649 10.8236 18.8374 11.1015C19.0984 11.3661 19.4116 11.5736 19.757 11.7108C20.1025 11.848 20.4727 11.9119 20.8441 11.8985C21.2156 11.885 21.5802 11.7945 21.9148 11.6327C22.2494 11.4709 22.5468 11.2413 22.7879 10.9585" fill="black" fill-opacity="0.5"/>
</g>
<defs>
<clipPath id="clip0_1_209">
<rect width="30" height="30" fill="white"/>
</clipPath>
</defs>
</svg>
