<svg width="20" height="20" viewBox="0 0 20 20" fill="none" xmlns="http://www.w3.org/2000/svg">
<path d="M10.0003 9.58329C9.44779 9.58329 8.91789 9.3638 8.52719 8.9731C8.13649 8.5824 7.91699 8.05249 7.91699 7.49996C7.91699 6.94742 8.13649 6.41752 8.52719 6.02682C8.91789 5.63612 9.44779 5.41663 10.0003 5.41663C10.5529 5.41663 11.0828 5.63612 11.4735 6.02682C11.8642 6.41752 12.0837 6.94742 12.0837 7.49996C12.0837 7.77355 12.0298 8.04446 11.9251 8.29722C11.8204 8.54998 11.6669 8.77964 11.4735 8.9731C11.28 9.16655 11.0503 9.32001 10.7976 9.42471C10.5448 9.52941 10.2739 9.58329 10.0003 9.58329ZM10.0003 1.66663C8.45323 1.66663 6.9695 2.28121 5.87554 3.37517C4.78157 4.46913 4.16699 5.95286 4.16699 7.49996C4.16699 11.875 10.0003 18.3333 10.0003 18.3333C10.0003 18.3333 15.8337 11.875 15.8337 7.49996C15.8337 5.95286 15.2191 4.46913 14.1251 3.37517C13.0312 2.28121 11.5474 1.66663 10.0003 1.66663Z" fill="#484848" fill-opacity="0.6"/>
</svg>
