<svg width="18" height="18" viewBox="0 0 18 18" fill="none" xmlns="http://www.w3.org/2000/svg">
<path d="M3 15C2.5875 15 2.2345 14.8533 1.941 14.5597C1.6475 14.2662 1.5005 13.913 1.5 13.5V4.5C1.5 4.0875 1.647 3.7345 1.941 3.441C2.235 3.1475 2.588 3.0005 3 3H15C15.4125 3 15.7657 3.147 16.0597 3.441C16.3538 3.735 16.5005 4.088 16.5 4.5V13.5C16.5 13.9125 16.3533 14.2657 16.0597 14.5597C15.7662 14.8538 15.413 15.0005 15 15H3ZM9 9.61875C9.0625 9.61875 9.12825 9.60925 9.19725 9.59025C9.26625 9.57125 9.33175 9.54325 9.39375 9.50625L14.7 6.1875C14.8 6.125 14.875 6.047 14.925 5.9535C14.975 5.86 15 5.75675 15 5.64375C15 5.39375 14.8938 5.20625 14.6813 5.08125C14.4688 4.95625 14.25 4.9625 14.025 5.1L9 8.25L3.975 5.1C3.75 4.9625 3.53125 4.9595 3.31875 5.091C3.10625 5.2225 3 5.40675 3 5.64375C3 5.76875 3.025 5.87825 3.075 5.97225C3.125 6.06625 3.2 6.138 3.3 6.1875L8.60625 9.50625C8.66875 9.54375 8.7345 9.572 8.8035 9.591C8.8725 9.61 8.938 9.61925 9 9.61875Z" fill="#484848" fill-opacity="0.6"/>
</svg>
