<svg width="22" height="22" viewBox="0 0 22 22" fill="none" xmlns="http://www.w3.org/2000/svg">
<path d="M10.9998 15.8354L7.19565 18.1271C7.02759 18.234 6.8519 18.2798 6.66856 18.2646C6.48523 18.2493 6.32481 18.1882 6.18731 18.0812C6.04981 17.9743 5.94287 17.8408 5.86648 17.6807C5.79009 17.5205 5.77481 17.3409 5.82065 17.1417L6.82898 12.8104L3.46023 9.89999C3.30745 9.76249 3.21212 9.60574 3.17423 9.42974C3.13634 9.25374 3.14765 9.08201 3.20815 8.91457C3.26865 8.74713 3.36031 8.60962 3.48315 8.50207C3.60598 8.39451 3.77404 8.32576 3.98731 8.29582L8.43315 7.90624L10.1519 3.82707C10.2283 3.64374 10.3468 3.50624 10.5076 3.41457C10.6683 3.3229 10.8324 3.27707 10.9998 3.27707C11.1673 3.27707 11.3313 3.3229 11.4921 3.41457C11.6528 3.50624 11.7713 3.64374 11.8477 3.82707L13.5665 7.90624L18.0123 8.29582C18.2262 8.32638 18.3943 8.39512 18.5165 8.50207C18.6387 8.60901 18.7304 8.74651 18.7915 8.91457C18.8526 9.08262 18.8642 9.25465 18.8263 9.43065C18.7884 9.60665 18.6928 9.7631 18.5394 9.89999L15.1706 12.8104L16.179 17.1417C16.2248 17.3403 16.2095 17.5199 16.1331 17.6807C16.0568 17.8414 15.9498 17.9749 15.8123 18.0812C15.6748 18.1876 15.5144 18.2487 15.3311 18.2646C15.1477 18.2805 14.972 18.2346 14.804 18.1271L10.9998 15.8354Z" fill="#484848" fill-opacity="0.6"/>
</svg>
